<!--?xml version="1.0" standalone="no"?-->
              <svg id="sw-js-blob-svg" viewBox="0 0 100 100" xmlns="http://www.w3.org/2000/svg" version="1.1">
                    <defs> 
                        <linearGradient id="sw-gradient" x1="0" x2="1" y1="1" y2="0">
                            <stop id="stop1" stop-color="rgba(248, 117, 55, 1)" offset="0%"></stop>
                            <stop id="stop2" stop-color="rgba(251, 168, 31, 1)" offset="100%"></stop>
                        </linearGradient>
                    </defs>
                <path fill="url(#sw-gradient)" d="M23.7,-28.2C30.9,-22.3,37,-14.9,38.8,-6.5C40.7,1.9,38.4,11.3,33.4,18.7C28.4,26,20.8,31.2,12.4,34.4C3.9,37.6,-5.3,38.9,-13.8,36.5C-22.3,34,-30,27.9,-34.1,20C-38.2,12.2,-38.8,2.6,-36.8,-6.1C-34.8,-14.8,-30.2,-22.6,-23.6,-28.6C-17,-34.6,-8.5,-38.7,-0.1,-38.6C8.3,-38.4,16.6,-34,23.7,-28.2Z" width="100%" height="100%" transform="translate(50 50)" stroke-width="0" style="transition: all 0.3s ease 0s;" stroke="url(#sw-gradient)"></path>
              </svg>