<!--?xml version="1.0" standalone="no"?-->
              <svg id="sw-js-blob-svg" viewBox="0 0 100 100" xmlns="http://www.w3.org/2000/svg" version="1.1">
                    <defs> 
                        <linearGradient id="sw-gradient" x1="0" x2="1" y1="1" y2="0">
                            <stop id="stop1" stop-color="rgba(0, 0, 0, 1)" offset="0%"></stop>
                            <stop id="stop2" stop-color="rgba(0, 0, 0, 1)" offset="100%"></stop>
                        </linearGradient>
                    </defs>
                <path fill="url(#sw-gradient)" d="M21.8,-38.1C28.8,-33.8,35.2,-28.9,39.7,-22.5C44.3,-16,46.9,-8,46.9,0C46.8,7.9,44,15.9,39.2,21.8C34.4,27.8,27.5,31.7,20.6,34C13.7,36.3,6.9,36.9,0.2,36.5C-6.4,36.1,-12.7,34.6,-18.5,31.6C-24.2,28.7,-29.3,24.3,-32.8,18.8C-36.3,13.2,-38.1,6.6,-39,-0.5C-39.9,-7.7,-39.9,-15.3,-36.7,-21.4C-33.5,-27.4,-27.2,-31.7,-20.5,-36.1C-13.9,-40.6,-6.9,-45.1,0.3,-45.5C7.4,-46,14.9,-42.3,21.8,-38.1Z" width="100%" height="100%" transform="translate(50 50)" stroke-width="0" style="transition: all 0.3s ease 0s;" stroke="url(#sw-gradient)"></path>
              </svg>